<?xml version="1.0" encoding="UTF-8" standalone="no"?>
<!-- Created with Inkscape (http://www.inkscape.org/) -->

<svg
   width="16"
   height="16"
   viewBox="0 0 4.2333332 4.2333333"
   version="1.1"
   id="svg1"
   inkscape:version="1.3.2 (091e20e, 2023-11-25, custom)"
   sodipodi:docname="Company_3.svg"
   xmlns:inkscape="http://www.inkscape.org/namespaces/inkscape"
   xmlns:sodipodi="http://sodipodi.sourceforge.net/DTD/sodipodi-0.dtd"
   xmlns="http://www.w3.org/2000/svg"
   xmlns:svg="http://www.w3.org/2000/svg">
  <sodipodi:namedview
     id="namedview1"
     pagecolor="#ffffff"
     bordercolor="#666666"
     borderopacity="1.0"
     inkscape:showpageshadow="2"
     inkscape:pageopacity="0.0"
     inkscape:pagecheckerboard="0"
     inkscape:deskcolor="#d1d1d1"
     inkscape:document-units="mm"
     inkscape:zoom="26.825365"
     inkscape:cx="6.6727891"
     inkscape:cy="3.5227853"
     inkscape:window-width="1920"
     inkscape:window-height="1137"
     inkscape:window-x="1912"
     inkscape:window-y="-8"
     inkscape:window-maximized="1"
     inkscape:current-layer="layer1" />
  <defs
     id="defs1">
    <linearGradient
       id="SVGID_3_"
       gradientUnits="userSpaceOnUse"
       x1="4.5"
       y1="15"
       x2="4.5"
       y2="10">
		<stop
   offset="0"
   style="stop-color:#693A0E"
   id="stop5" />

		<stop
   offset="0.9946"
   style="stop-color:#C04617"
   id="stop6" />

	</linearGradient>
    <linearGradient
       id="SVGID_4_"
       gradientUnits="userSpaceOnUse"
       x1="2.5"
       y1="11"
       x2="6.5"
       y2="11">
		<stop
   offset="0"
   style="stop-color:#51AE38"
   id="stop7" />

		<stop
   offset="0.9946"
   style="stop-color:#003F34"
   id="stop8" />

	</linearGradient>
    <linearGradient
       id="SVGID_5_"
       gradientUnits="userSpaceOnUse"
       x1="2.5"
       y1="16"
       x2="2.5"
       y2="11">
		<stop
   offset="0"
   style="stop-color:#693A0E"
   id="stop9" />

		<stop
   offset="0.9946"
   style="stop-color:#C04617"
   id="stop10" />

	</linearGradient>
    <linearGradient
       id="SVGID_6_"
       gradientUnits="userSpaceOnUse"
       x1="0.5"
       y1="12"
       x2="4.5"
       y2="12">
		<stop
   offset="0"
   style="stop-color:#51AE38"
   id="stop11" />

		<stop
   offset="0.9946"
   style="stop-color:#003F34"
   id="stop12" />

	</linearGradient>
    <linearGradient
       id="SVGID_2_"
       gradientUnits="userSpaceOnUse"
       x1="2.5552001"
       y1="5.9727001"
       x2="12.1898"
       y2="9.4793997">
		<stop
   offset="0"
   style="stop-color:#8AD0E2"
   id="stop3" />

		<stop
   offset="1"
   style="stop-color:#3258A4"
   id="stop4" />

	</linearGradient>
    <linearGradient
       id="SVGID_1_"
       gradientUnits="userSpaceOnUse"
       x1="1.3354"
       y1="5.5742002"
       x2="14.6646"
       y2="10.4256">
		<stop
   offset="0"
   style="stop-color:#979897"
   id="stop1" />

		<stop
   offset="0.9839"
   style="stop-color:#7F7E7E"
   id="stop2" />

	</linearGradient>
  </defs>
  <g
     inkscape:label="Layer 1"
     inkscape:groupmode="layer"
     id="layer1">
    <g
       id="_x7B__PAGE_GRID__x7D_"
       transform="scale(0.26458333)">
</g>
    <g
       id="outline"
       transform="scale(0.26458333)">
</g>
    <g
       id="icon_x5F_bg"
       transform="scale(0.26458333)">
	<linearGradient
   id="linearGradient14"
   gradientUnits="userSpaceOnUse"
   x1="1.3354"
   y1="5.5742002"
   x2="14.6646"
   y2="10.4256">
		<stop
   offset="0"
   style="stop-color:#979897"
   id="stop13" />

		<stop
   offset="0.9839"
   style="stop-color:#7F7E7E"
   id="stop14" />

	</linearGradient>

	<path
   fill="url(#SVGID_1_)"
   d="m 3,1 v 14 h 4 v -3 h 2 v 3 h 4 V 1 Z m 3,9 H 4 V 8 H 6 Z M 6,7 H 4 V 5 H 6 Z M 6,4 H 4 V 2 h 2 z m 3,6 H 7 V 8 H 9 Z M 9,7 H 7 V 5 H 9 Z M 9,4 H 7 V 2 h 2 z m 3,6 H 10 V 8 h 2 z M 12,7 H 10 V 5 h 2 z M 12,4 H 10 V 2 h 2 z"
   id="path2"
   style="fill:url(#SVGID_1_)" />

</g>
    <g
       id="icon_x5F_fg"
       transform="scale(0.26458333)">
	<linearGradient
   id="linearGradient16"
   gradientUnits="userSpaceOnUse"
   x1="2.5552001"
   y1="5.9727001"
   x2="12.1898"
   y2="9.4793997">
		<stop
   offset="0"
   style="stop-color:#8AD0E2"
   id="stop15" />

		<stop
   offset="1"
   style="stop-color:#3258A4"
   id="stop16" />

	</linearGradient>

	<path
   fill="url(#SVGID_2_)"
   d="M 6,4 H 4 V 2 H 6 Z M 9,2 H 7 v 2 h 2 z m 3,0 h -2 v 2 h 2 z M 6,5 H 4 V 7 H 6 Z M 9,5 H 7 v 2 h 2 z m 3,0 h -2 v 2 h 2 z M 6,8 H 4 v 2 H 6 Z M 9,8 H 7 v 2 h 2 z m 3,0 h -2 v 2 h 2 z M 9,12 H 7 v 3 h 2 z"
   id="path4"
   style="fill:url(#SVGID_2_)" />

</g>
    <g
       id="not_x5F_bg"
       transform="scale(0.26458333)">
</g>
    <g
       id="not_x5F_fg"
       transform="scale(0.26458333)">
</g>
    <g
       id="Ebene_7"
       transform="scale(0.26458333)">
	<linearGradient
   id="linearGradient18"
   gradientUnits="userSpaceOnUse"
   x1="4.5"
   y1="15"
   x2="4.5"
   y2="10">
		<stop
   offset="0"
   style="stop-color:#693A0E"
   id="stop17" />

		<stop
   offset="0.9946"
   style="stop-color:#C04617"
   id="stop18" />

	</linearGradient>

	<rect
   x="4"
   y="10"
   fill="url(#SVGID_3_)"
   width="1"
   height="5"
   id="rect6"
   style="fill:url(#SVGID_3_)" />

	<linearGradient
   id="linearGradient20"
   gradientUnits="userSpaceOnUse"
   x1="2.5"
   y1="11"
   x2="6.5"
   y2="11">
		<stop
   offset="0"
   style="stop-color:#51AE38"
   id="stop19" />

		<stop
   offset="0.9946"
   style="stop-color:#003F34"
   id="stop20" />

	</linearGradient>

	<ellipse
   fill="url(#SVGID_4_)"
   cx="4.5"
   cy="11"
   rx="2"
   ry="1.5"
   id="ellipse8"
   style="fill:url(#SVGID_4_)" />

	<linearGradient
   id="linearGradient22"
   gradientUnits="userSpaceOnUse"
   x1="2.5"
   y1="16"
   x2="2.5"
   y2="11">
		<stop
   offset="0"
   style="stop-color:#693A0E"
   id="stop21" />

		<stop
   offset="0.9946"
   style="stop-color:#C04617"
   id="stop22" />

	</linearGradient>

	<rect
   x="2"
   y="11"
   fill="url(#SVGID_5_)"
   width="1"
   height="5"
   id="rect10"
   style="fill:url(#SVGID_5_)" />

	<linearGradient
   id="linearGradient24"
   gradientUnits="userSpaceOnUse"
   x1="0.5"
   y1="12"
   x2="4.5"
   y2="12">
		<stop
   offset="0"
   style="stop-color:#51AE38"
   id="stop23" />

		<stop
   offset="0.9946"
   style="stop-color:#003F34"
   id="stop24" />

	</linearGradient>

	<ellipse
   fill="url(#SVGID_6_)"
   cx="2.5"
   cy="12"
   rx="2"
   ry="1.5"
   id="ellipse12"
   style="fill:url(#SVGID_6_)" />

</g>
  </g>
</svg>
